<svg xmlns="http://www.w3.org/2000/svg" viewBox="0 0 32 32">
  <rect width="32" height="32" rx="7.04" fill="#191919"></rect>
  <g transform="translate(10.105 7.040) scale(1.1222)" fill="#02FB7E">
    <path fill-rule="nonzero" d="M 9.761 9.15 C 8.917 9.149 8.098 8.865 7.436 8.343 C 6.773 7.821 6.304 7.092 6.105 6.272 C 6.879 6.912 7.853 7.26 8.857 7.255 L 9.602 7.255 L 9.602 5.765 L 8.857 5.765 C 8.229 5.767 7.617 5.561 7.118 5.18 C 6.619 4.798 6.26 4.262 6.098 3.655 C 6.651 4.012 7.295 4.202 7.953 4.202 L 8.698 4.202 L 8.698 2.704 L 7.953 2.704 C 7.435 2.704 6.938 2.499 6.571 2.133 C 6.204 1.767 5.997 1.271 5.994 0.753 L 5.994 0 L 4.504 0 L 4.504 0.753 C 4.504 1.01 4.453 1.264 4.355 1.502 C 4.256 1.739 4.112 1.954 3.93 2.135 C 3.748 2.317 3.532 2.46 3.294 2.558 C 3.057 2.655 2.802 2.705 2.545 2.704 L 1.8 2.704 L 1.8 4.202 L 2.545 4.202 C 3.206 4.202 3.853 4.012 4.409 3.655 C 4.246 4.262 3.887 4.798 3.388 5.18 C 2.889 5.561 2.277 5.767 1.649 5.765 L 0.904 5.765 L 0.904 7.255 L 1.649 7.255 C 2.653 7.259 3.627 6.911 4.401 6.272 C 4.199 7.09 3.73 7.818 3.068 8.34 C 2.406 8.861 1.588 9.146 0.745 9.15 L 0 9.15 L 0 10.641 L 0.745 10.641 C 1.446 10.642 2.14 10.502 2.786 10.23 C 3.431 9.958 4.016 9.558 4.504 9.055 L 4.504 15.969 L 5.994 15.969 L 5.994 9.055 C 6.485 9.557 7.07 9.957 7.717 10.229 C 8.364 10.501 9.059 10.641 9.761 10.641 L 10.506 10.641 L 10.506 9.15 Z"></path>
  </g>
</svg>